<svg width="1024" height="273" viewBox="0 0 1024 273" fill="none" xmlns="http://www.w3.org/2000/svg">
<path fill-rule="evenodd" clip-rule="evenodd" d="M54.9806 32.7755C55.7217 32.7755 56.3145 33.0222 56.3145 33.417C56.3145 33.713 55.6229 34.9961 54.783 36.2298C53.9926 37.4634 52.5599 39.8815 51.6213 41.658C50.732 43.4345 49.744 46.1979 49.4475 47.8264C49.1511 49.4548 48.9041 53.2052 48.9041 56.2154C48.9041 59.2256 49.0523 62.3838 49.2499 63.2721C49.4969 64.3083 49.8922 64.8512 50.3862 64.7525C50.7814 64.6538 51.8189 63.2721 52.7575 61.6436C53.6468 60.0151 54.8818 58.1893 55.4747 57.5971C56.0675 57.0049 57.3026 56.3141 58.1918 56.1167C59.5257 55.7713 59.7727 55.87 59.7727 56.5608C59.7727 57.0543 59.4269 59.1762 58.9823 61.2488C58.5871 63.3708 57.846 65.9862 57.352 67.0718C56.8086 68.2561 56.5615 69.7365 56.7097 70.7728C56.858 71.7598 56.7098 72.648 56.3639 72.8454C56.0675 73.0922 55.8205 73.5856 55.8205 73.9804C55.8205 74.3752 56.3639 74.9674 57.0556 75.2141C57.879 75.5431 58.2248 75.9872 58.093 76.5465C57.9448 77.0399 57.6484 78.323 57.352 79.4086C57.0556 80.4942 56.6603 82.6655 56.4627 84.1953C56.1169 86.564 56.2157 87.0574 56.8086 87.0574C57.2038 87.0574 58.1424 86.4653 58.8341 85.7251C59.5257 84.9355 60.8102 82.8629 61.65 80.9877C62.7369 78.6684 63.5768 77.5828 64.3178 77.3854C64.96 77.2373 65.5035 77.188 65.5529 77.2867C65.6023 77.3854 65.207 80.4449 64.713 84.0966C64.1696 87.7483 63.3791 92.0909 62.9839 93.7193C62.5887 95.3478 62.3911 96.7788 62.4899 96.9269C62.6381 97.0749 63.0827 96.4334 63.5768 95.5452C64.0708 94.6076 65.0588 92.8804 65.7999 91.6961C66.5903 90.5117 67.529 89.5248 67.9242 89.5248C68.3194 89.5248 68.6652 89.7715 68.6652 90.0183C68.6652 90.265 69.2087 91.2026 71.1354 93.4726L69.6533 95.7919C68.8628 97.1243 68.1712 98.506 68.1712 98.9008C68.1712 99.2956 67.9736 99.8877 67.6772 100.134C67.3808 100.381 66.9361 101.467 66.6891 102.454C66.3927 103.49 66.2939 104.329 66.4421 104.329C66.5903 104.329 67.3808 103.638 68.1712 102.849C69.3569 101.664 70.0485 101.368 71.8764 101.368C73.5067 101.368 74.0995 101.566 74.0995 102.108C74.0995 102.503 73.4573 103.786 72.6669 104.921C71.8764 106.105 70.7402 108.129 70.1473 109.51C69.5545 110.843 68.9123 113.409 68.764 115.185C68.6158 117.357 68.7146 118.492 69.0605 118.738C69.4557 118.985 69.8509 118.64 70.1473 117.899C70.3943 117.209 70.6413 115.876 70.6413 114.939C70.6413 113.705 70.9378 113.063 71.6294 112.718C72.1728 112.471 72.9633 112.225 73.3585 112.225C73.8525 112.225 74.0007 112.57 73.8525 113.31C73.7043 113.952 73.4079 115.185 73.2103 116.074C72.9633 117.307 73.0621 117.85 73.6055 118.146C74.0007 118.442 74.9394 118.64 75.6804 118.64C76.4709 118.64 77.0637 118.936 77.0637 119.232C77.0637 119.577 76.8661 120.12 76.5697 120.367C76.2733 120.614 76.0757 121.403 76.1745 122.094C76.2733 122.982 76.6685 123.377 77.5577 123.476C78.2494 123.574 80.2255 123.081 82.004 122.39C83.7825 121.65 85.4622 121.107 85.7092 121.107C85.9562 121.107 86.3515 122.242 86.5491 123.673C86.7467 125.499 86.6479 126.733 86.1538 127.769C85.7586 128.558 85.4622 129.743 85.4622 130.335C85.4622 130.977 85.8574 131.667 86.302 131.914C87.1419 132.309 87.0925 132.556 85.8574 135.023C84.9188 136.75 84.4741 138.379 84.5235 142.08L85.8574 140.402C86.5985 139.464 87.8829 138.033 88.6734 137.244C89.4638 136.454 90.6001 135.714 91.1435 135.566C91.687 135.418 92.5268 135.418 92.9714 135.615C93.7619 135.862 93.5643 136.257 91.8352 138.231C90.6989 139.563 89.4638 141.339 89.118 142.178C88.7228 143.067 88.4264 144.152 88.4264 144.547C88.4264 145.139 88.871 145.238 92.3786 144.794L92.4774 146.866C92.6256 148.791 92.7738 148.988 93.9595 149.087C94.9969 149.186 95.3922 149.531 95.5898 150.469C95.7874 151.554 96.0344 151.653 99.048 151.11L99.542 154.466C100.036 157.871 100.036 157.871 101.518 157.723C102.704 157.624 103.148 157.821 103.593 158.808C104.136 159.894 104.482 160.042 105.717 159.845C107.002 159.647 107.298 159.795 107.99 161.177C108.435 162.065 109.077 162.954 109.373 163.102C109.67 163.299 111.448 161.769 113.375 159.697C115.301 157.673 118.117 155.157 119.649 154.12C121.23 153.035 122.811 151.702 123.206 151.061C123.601 150.469 124.737 147.755 125.725 145.04C126.763 142.326 127.85 138.971 128.245 137.638C128.591 136.257 128.69 134.875 128.541 134.48C128.294 134.036 127.702 133.888 126.467 134.135C125.528 134.283 124.194 134.579 123.552 134.776C122.416 135.171 122.317 135.072 122.613 133.691C122.811 132.901 123.058 131.815 123.206 131.322C123.453 130.631 123.206 130.483 121.773 130.483C120.835 130.483 119.945 130.236 119.797 129.99C119.649 129.743 120.291 128.707 121.131 127.72C122.02 126.733 124.095 125.302 125.725 124.512C127.356 123.722 129.925 122.884 131.407 122.587C132.889 122.291 135.112 122.094 136.347 122.094C137.582 122.094 140.546 122.439 143.016 122.834C145.487 123.229 148.056 123.673 148.797 123.821C149.982 124.019 150.13 124.265 149.933 125.302C149.735 126.387 149.883 126.585 151.761 127.078C152.946 127.374 154.379 128.114 154.972 128.657C155.565 129.249 155.96 129.891 155.861 130.088C155.713 130.335 154.132 130.483 152.255 130.483C149.834 130.483 148.55 130.73 147.315 131.47C146.475 132.013 145.487 132.901 145.24 133.444C144.993 133.987 144.795 134.924 144.844 135.516C144.943 136.158 144.597 137.194 144.103 137.885C143.659 138.576 143.263 139.366 143.263 139.612C143.214 139.859 144.103 141.093 145.141 142.326C146.228 143.56 147.66 145.435 148.401 146.521C149.142 147.607 149.686 148.939 149.686 149.482C149.686 150.025 150.032 150.814 150.526 151.258C151.02 151.702 152.65 152.492 154.132 152.985C156.108 153.627 157.788 154.713 163.519 160.091L164.26 158.858C164.803 157.92 165.297 157.673 166.236 157.871C167.224 158.068 167.57 157.871 167.965 156.884C168.212 156.193 168.459 154.663 168.459 153.429C168.459 151.554 168.607 151.209 169.447 151.209C169.99 151.209 170.88 151.456 171.423 151.702C172.312 152.146 172.411 152.048 172.411 150.715C172.411 149.383 172.559 149.235 173.893 149.235C175.326 149.235 175.375 149.136 175.375 147.014C175.375 145.139 175.524 144.843 176.215 144.991C176.709 145.139 177.845 145.337 180.316 145.781L179.525 143.905C179.13 142.919 178.438 141.586 178.043 140.945C177.697 140.352 176.561 138.971 175.622 137.885C174.14 136.158 173.992 135.862 174.733 135.615C175.227 135.418 176.166 135.467 176.857 135.664C177.549 135.862 179.278 137.293 183.329 141.586L183.28 139.859C183.28 138.921 182.638 136.849 181.897 135.27C180.612 132.556 180.612 132.408 181.501 131.815C182.242 131.322 182.341 130.878 182.045 129.496C181.847 128.558 181.6 126.338 181.501 124.561C181.353 122.785 181.452 121.206 181.649 121.008C181.847 120.811 183.477 121.304 185.256 122.094C187.034 122.884 188.912 123.525 189.455 123.574C189.999 123.574 190.74 123.377 191.085 123.18C191.481 122.982 191.678 122.094 191.579 120.86C191.431 118.936 191.481 118.886 193.012 118.738C194.445 118.64 194.642 118.442 194.642 117.258C194.642 116.518 194.395 115.136 194.099 114.198C193.803 113.261 193.753 112.323 193.951 112.126C194.198 111.928 194.939 112.027 195.581 112.373C196.273 112.718 196.964 113.606 197.162 114.445C197.36 115.235 197.656 116.518 197.804 117.258C197.952 118.048 198.348 118.64 198.595 118.64C198.842 118.64 199.089 117.406 199.089 115.926C199.089 114.445 198.693 111.928 198.199 110.349C197.705 108.77 196.52 106.55 195.482 105.316C194.445 104.082 193.654 102.602 193.654 101.96C193.654 101.368 194 100.776 194.395 100.628C194.791 100.48 196.174 100.875 197.458 101.467C198.792 102.059 199.978 102.602 200.176 102.701C200.423 102.799 200.571 102.306 200.571 101.615C200.571 100.924 199.78 98.9501 198.842 97.1736C197.903 95.3971 197.113 93.7193 197.113 93.4726C197.113 93.2258 197.508 92.5843 197.952 92.0909C198.446 91.5974 199.089 90.7585 199.435 90.2157C200.027 89.3274 200.077 89.3274 201.114 90.5117C201.707 91.2026 202.695 92.7817 203.337 94.0648C203.98 95.3971 204.819 96.5815 205.116 96.7789C205.544 97.042 205.643 96.9269 205.412 96.4334C205.264 96.0386 204.77 93.818 204.375 91.4987C203.93 89.1794 203.337 85.1822 203.041 82.6162C202.646 79.4086 202.646 77.7802 202.992 77.4347C203.321 77.1057 203.749 77.188 204.276 77.6815C204.721 78.0762 205.857 80.0501 206.796 81.9747C207.734 83.9486 209.019 85.9718 209.71 86.4159C210.402 86.9094 211.143 87.1068 211.341 86.9094C211.538 86.6627 211.291 84.3433 210.797 81.7279C210.303 79.1125 209.859 76.6452 209.809 76.2504C209.76 75.8556 210.254 75.3621 210.945 75.2141C211.686 75.0167 212.082 74.6219 211.983 74.1778C211.884 73.783 211.736 72.5 211.736 71.2663C211.686 70.0326 211.291 68.5029 210.847 67.812C210.402 67.1211 209.661 64.9005 209.216 62.8773C208.772 60.854 208.327 58.6334 208.179 57.9426C207.981 57.1036 208.129 56.6102 208.673 56.3141C209.117 56.1167 210.056 56.2647 210.797 56.6102C211.588 56.9556 213.267 58.7815 214.552 60.6567C215.836 62.5812 217.269 64.259 217.664 64.4564C218.208 64.7525 218.405 64.3577 218.652 62.4825C218.85 61.1995 218.85 57.153 218.702 53.5013C218.553 49.7016 218.109 45.8031 217.664 44.3721C217.269 42.9903 215.688 40.1282 214.157 37.9569C212.674 35.7856 211.439 33.7131 211.439 33.3676C211.439 33.0715 211.933 32.7755 212.526 32.7755C213.168 32.7755 214.552 33.3676 215.639 34.1572C216.725 34.9467 218.455 36.4765 219.443 37.6115C220.48 38.7465 222.061 40.8684 223 42.2501C223.889 43.6812 224.976 45.6551 225.42 46.5927C225.816 47.5303 226.408 50.0963 226.705 52.2676C227.051 54.4389 228.385 59.423 229.718 63.3708C231.052 67.3185 232.683 73.2896 233.374 76.6945C234.016 80.0995 234.906 85.7744 235.252 89.2781C235.597 92.7817 235.894 99.6903 235.844 104.576C235.844 112.817 235.746 113.754 234.511 117.406C233.769 119.577 232.238 123.032 231.052 125.055C229.867 127.078 227.644 130.73 226.063 133.197C224.531 135.664 222.901 138.872 222.456 140.352C221.715 142.919 221.715 143.264 222.753 146.768C223.592 149.728 223.691 150.567 223.197 150.863C222.851 151.061 221.567 151.16 220.332 151.011C219.097 150.913 217.763 150.666 217.368 150.518C216.775 150.271 216.577 150.913 216.281 154.022C215.984 156.834 215.49 158.66 214.354 160.832C213.514 162.46 211.489 166.457 209.809 169.714C208.179 172.971 206.104 176.425 205.264 177.363C204.375 178.301 202.497 180.768 201.065 182.791C199.632 184.814 197.656 187.331 196.668 188.417C195.68 189.453 192.913 191.624 190.443 193.302C187.973 194.931 183.823 197.941 181.155 200.013C178.537 202.086 176.265 203.665 176.116 203.517C176.018 203.369 175.721 201.938 175.079 197.349L172.955 201.05C171.769 203.073 169.645 206.28 168.261 208.156C166.878 210.031 163.617 213.584 161.049 216.002C158.48 218.42 155.12 221.134 153.638 222.072C152.156 223.009 149.587 224.588 147.957 225.526C145.536 226.908 144.499 227.253 139.558 227.253L134.371 232.336C131.259 235.395 128.146 237.912 126.565 238.702C125.182 239.442 123.651 240.034 123.255 240.034C122.712 240.034 122.613 239.689 122.761 238.899C122.91 238.307 123.206 236.58 123.354 235.099C123.601 232.928 123.453 231.941 122.613 230.164C122.02 228.931 120.044 226.315 118.216 224.292C116.388 222.269 112.09 218.321 108.682 215.558C105.273 212.794 100.629 208.846 98.3069 206.774C95.491 204.257 91.7364 201.74 86.9443 198.977C82.9921 196.756 78.1012 193.648 76.0757 192.167C74.0501 190.637 70.7896 187.528 68.8628 185.209C66.9361 182.939 64.219 179.633 62.8851 177.856C61.6006 176.08 58.7847 171.441 56.7592 167.493C54.6842 163.546 52.7081 159.104 52.3623 157.624C52.0659 156.144 51.6707 154.515 51.5719 154.022C51.4236 153.38 50.6826 153.824 48.0149 156.292C46.187 157.969 43.9144 159.746 42.9758 160.19C42.0371 160.634 41.0491 160.881 40.8515 160.684C40.6538 160.486 41.0491 158.117 41.7901 155.403C42.7782 151.752 43.1734 149.284 43.1734 146.027C43.1734 142.77 42.877 140.698 42.0865 138.231C41.4937 136.405 39.4682 131.865 37.5415 128.114C35.6642 124.413 33.6386 119.577 33.0458 117.406C32.1071 113.952 31.9589 112.225 32.0083 103.342C32.0083 97.0256 32.3048 90.9065 32.7988 87.0574C33.2434 83.6525 34.1821 78.4217 34.8243 75.4608C35.5159 72.5 36.8992 67.2692 37.9861 63.8642C39.0235 60.4593 40.3574 55.3765 40.9503 52.5144C41.5431 49.6522 42.5311 46.1979 43.1734 44.8655C43.865 43.4838 45.7423 40.8684 47.422 38.9439C49.0523 37.0193 50.3862 35.3415 50.3368 35.1441C50.2874 34.9961 50.979 34.4039 51.9177 33.8117C52.8563 33.2689 54.1902 32.7755 54.9313 32.7755H54.9806ZM195.136 135.418C194.297 136.01 194.148 136.454 194.395 137.638C194.544 138.428 195.779 140.895 197.063 143.067C198.348 145.287 199.78 148.396 200.225 149.975C200.719 151.604 201.213 154.022 201.411 155.403C201.658 157.279 201.806 157.624 202.102 156.884C202.3 156.341 202.646 154.762 202.843 153.429C203.041 151.998 202.942 149.728 202.596 148.001C202.25 146.373 200.917 142.721 199.583 139.859C198.249 136.997 197.211 134.184 197.211 133.592C197.261 133 197.063 132.358 196.767 132.21C196.47 132.013 196.273 132.506 196.223 133.296C196.223 134.135 195.779 134.974 195.136 135.418ZM178.142 159.45C176.907 159.401 175.919 159.549 175.919 159.845C175.919 160.091 176.413 161.128 176.956 162.065C177.549 163.003 178.587 164.434 179.328 165.174C180.513 166.507 180.612 166.852 180.612 171.441C180.612 174.106 180.76 176.425 181.007 176.573C181.205 176.721 181.649 176.277 182.045 175.488C182.44 174.748 183.033 172.724 183.329 170.948C183.873 168.086 183.774 167.197 182.687 162.312C181.6 157.279 181.452 156.983 180.908 158.216C180.414 159.45 180.167 159.598 178.142 159.45ZM85.314 163.891C84.3259 167.444 84.0295 169.171 84.3259 170.454C84.5235 171.392 85.1658 173.613 85.808 175.389C86.6973 177.906 86.9937 178.399 87.2901 177.61C87.4877 177.067 87.4383 175.192 87.2407 173.415C86.9937 171.639 86.8949 169.665 86.9443 168.974C87.0431 168.283 87.6359 166.852 88.2782 165.766C88.9698 164.681 90.0567 163.003 90.7483 162.065C91.3905 161.128 91.934 160.042 91.934 159.697C91.934 159.302 91.0941 159.104 89.3156 159.104H86.6973L85.314 163.891ZM166.927 167.74C166.038 167.592 164.556 167.395 163.716 167.247C162.827 167.099 162.086 167.099 162.086 167.197C162.086 167.345 162.975 169.171 164.013 171.293C165.05 173.415 166.285 176.327 166.73 177.807C167.174 179.337 167.965 183.087 168.508 186.196C169.052 189.354 169.496 192.513 169.496 193.253C169.496 193.993 169.743 194.733 169.99 194.832C170.287 194.98 170.682 194.733 170.929 194.24C171.176 193.746 171.72 191.674 172.164 189.552C172.609 187.43 172.955 183.729 172.955 181.261C172.955 178.004 172.708 176.08 171.917 174.007C171.374 172.428 170.633 170.109 170.336 168.826C169.99 167.543 169.447 166.457 169.151 166.457C168.805 166.457 168.508 166.803 168.508 167.197C168.508 167.79 168.113 167.888 166.927 167.74ZM155.417 183.235C155.664 192.019 155.515 196.214 154.824 203.172L153.935 211.955C156.405 209.044 157.393 207.169 157.689 205.935C157.986 204.751 158.331 201.642 158.48 199.026C158.727 195.572 158.974 194.24 159.566 193.796C160.209 193.351 160.307 192.71 160.011 190.835C159.813 189.502 159.319 187.43 158.924 186.196C158.282 184.272 158.282 183.679 158.924 181.508C159.468 179.584 159.517 178.449 159.072 176.08C158.776 174.501 158.134 172.379 157.689 171.392C157.245 170.454 156.503 169.171 156.108 168.579C155.762 167.987 155.219 167.444 154.972 167.444C154.725 167.444 154.676 168.53 154.824 169.813C155.021 171.096 155.268 177.166 155.417 183.235ZM100.332 170.306C98.8504 170.109 98.801 170.158 97.5659 174.106C96.479 177.61 96.3308 178.745 96.479 183.482C96.6272 187.677 96.8743 189.354 97.6153 190.637L98.5539 192.364C99.1962 187.825 99.8384 184.37 100.431 181.755C101.073 178.843 102.16 175.734 103.346 173.514C104.433 171.54 105.273 169.813 105.273 169.665C105.273 169.566 104.878 169.467 104.433 169.467C103.939 169.467 103.148 169.714 102.704 170.01C102.21 170.306 101.123 170.454 100.332 170.306ZM116.833 202.974C117.525 206.675 118.661 211.314 119.303 213.337C120.439 216.841 120.489 216.939 120.538 215.064C120.538 213.979 120.143 209.093 119.649 204.208C119.106 199.372 118.315 193.105 117.87 190.391C117.426 187.677 116.932 184.666 116.685 183.63C116.487 182.594 115.993 181.755 115.647 181.755C115.153 181.755 115.054 183.285 115.301 189.058C115.45 193.697 116.043 198.73 116.833 202.974ZM133.482 214.817C133.729 216.594 134.223 218.272 134.47 218.519C134.766 218.848 134.914 218.683 134.914 218.025C134.914 217.482 134.667 215.114 134.371 212.745C134.124 210.376 133.679 208.402 133.383 208.402C133.136 208.402 132.938 209.143 132.938 210.031C132.938 210.919 133.185 213.09 133.482 214.817ZM122.564 84.3927C124.342 84.5407 126.565 84.9849 127.504 85.3796C128.443 85.7744 130.271 87.1561 133.877 90.7091L136.495 88.1924C138.422 86.3666 139.855 85.4783 141.831 84.8862C143.313 84.442 145.338 84.0473 146.277 84.0966C147.216 84.0966 149.439 84.442 151.217 84.8368C152.996 85.2809 155.565 86.2185 156.899 86.9587C158.282 87.6496 161.641 90.4624 164.359 93.1765C167.125 95.8906 170.435 99.5916 171.72 101.319C173.004 103.095 175.326 105.661 176.857 107.043C178.389 108.425 180.513 109.856 181.6 110.201C182.885 110.596 184.515 110.744 186.195 110.547C188.269 110.3 188.763 110.349 188.763 110.942C188.763 111.386 188.467 112.323 188.072 113.063C187.677 113.804 186.491 115.235 185.454 116.222C184.416 117.209 182.687 118.442 181.6 118.985C180.513 119.528 178.29 120.317 176.66 120.762C175.029 121.156 172.411 121.65 170.88 121.798C168.459 122.045 168.014 122.193 168.014 123.032C168.014 123.673 167.52 124.265 166.68 124.561C165.89 124.907 163.914 125.005 162.086 124.857C159.665 124.66 157.887 124.117 154.923 122.637C152.749 121.502 148.846 119.38 146.277 117.899C143.708 116.37 140.398 114.692 139.015 114.149C137.582 113.606 135.359 113.211 134.075 113.211C132.741 113.211 130.616 113.606 129.233 114.05C127.85 114.544 123.749 116.616 120.094 118.738C116.438 120.86 112.041 122.982 110.361 123.525C108.385 124.167 105.915 124.512 103.544 124.512C100.036 124.512 99.8384 124.463 99.8384 123.426C99.8384 122.439 99.542 122.291 97.0225 121.995C95.4416 121.798 92.3786 121.058 90.2049 120.367C88.0311 119.676 85.1658 118.393 83.7825 117.505C82.4486 116.567 80.8677 115.087 80.2749 114.149C79.6821 113.211 79.0892 111.83 78.8916 111.09C78.6446 110.004 78.7928 109.757 79.4845 109.757C79.9291 109.757 81.3124 109.955 82.5474 110.201C83.8319 110.448 85.4128 110.399 86.2526 110.152C87.0925 109.905 88.624 109.116 89.6614 108.375C90.6989 107.635 94.1571 103.934 97.3189 100.134C100.481 96.3841 104.383 92.0909 106.014 90.6104C107.644 89.13 110.312 87.3042 111.942 86.5146C113.572 85.7251 115.894 84.8368 117.129 84.5901C118.364 84.3433 120.785 84.2446 122.564 84.3927ZM122.465 94.6569C122.514 95.4958 122.02 97.223 121.329 98.506C120.637 99.789 120.143 100.973 120.242 101.072C120.291 101.22 121.279 100.579 122.465 99.5916C123.601 98.654 124.836 97.1243 125.182 96.1867C125.676 94.7063 125.923 94.5089 127.01 94.7556L128.245 95.0517C126.269 92.9791 125.281 92.4363 124.49 92.4363C123.799 92.4363 123.058 92.5843 122.811 92.7817C122.564 92.9791 122.416 93.818 122.465 94.6569ZM148.55 100.184C149.192 101.023 150.279 101.714 151.267 101.911C152.205 102.108 152.996 102.207 153.045 102.158C153.095 102.108 152.601 101.319 151.958 100.332C151.267 99.3942 150.476 97.6177 150.18 96.3841C149.883 95.1997 149.389 93.9167 149.093 93.5713C148.747 93.1765 148.204 92.9298 147.809 92.9298C147.315 92.9298 147.166 93.6206 147.315 95.8906C147.463 97.8645 147.858 99.2462 148.55 100.184ZM159.122 99.7397C159.122 100.825 159.468 101.566 160.258 102.108C160.851 102.503 161.938 102.799 162.679 102.701L164.013 102.552C161.543 97.223 160.604 95.4958 160.307 95.2984C159.962 95.101 159.665 95.5452 159.418 96.5321C159.27 97.4204 159.122 98.8514 159.122 99.7397ZM103.148 102.404C101.864 103.836 100.876 105.119 100.925 105.168C101.024 105.267 101.963 105.119 103.05 104.822C104.532 104.477 105.174 104.477 105.668 104.921C106.162 105.415 106.557 105.267 107.545 104.28C108.187 103.638 109.027 102.306 109.324 101.319C109.62 100.381 110.361 98.654 110.954 97.5191C111.596 96.3841 111.893 95.3971 111.695 95.3971C111.497 95.3971 110.015 96.3841 108.435 97.5684C106.804 98.7527 104.482 100.924 103.148 102.404Z" fill="white"/>
<path d="M281.13 124.405V40.4047H293.97L330.69 101.725H323.97L360.09 40.4047H372.93L373.05 124.405H358.29L358.17 63.5647H361.29L330.57 114.805H323.61L292.41 63.5647H296.01V124.405H281.13ZM383.859 124.405L421.659 40.4047H437.019L474.939 124.405H458.619L426.099 48.6847H432.339L399.939 124.405H383.859ZM401.259 104.965L405.459 92.7247H450.819L455.019 104.965H401.259ZM485.622 124.405V40.4047H520.182C527.622 40.4047 533.982 41.6047 539.262 44.0047C544.622 46.4047 548.742 49.8447 551.622 54.3247C554.502 58.8047 555.942 64.1247 555.942 70.2847C555.942 76.4447 554.502 81.7647 551.622 86.2447C548.742 90.6447 544.622 94.0447 539.262 96.4447C533.982 98.7647 527.622 99.9247 520.182 99.9247H494.262L501.222 92.8447V124.405H485.622ZM540.582 124.405L519.342 93.9247H536.022L557.382 124.405H540.582ZM501.222 94.5247L494.262 87.0847H519.462C526.342 87.0847 531.502 85.6047 534.942 82.6447C538.462 79.6847 540.222 75.5647 540.222 70.2847C540.222 64.9247 538.462 60.8047 534.942 57.9247C531.502 55.0447 526.342 53.6047 519.462 53.6047H494.262L501.222 45.9247V94.5247ZM612.275 125.605C605.875 125.605 599.915 124.565 594.395 122.485C588.955 120.325 584.195 117.325 580.115 113.485C576.115 109.565 572.995 104.965 570.755 99.6847C568.515 94.4047 567.395 88.6447 567.395 82.4047C567.395 76.1647 568.515 70.4047 570.755 65.1247C572.995 59.8447 576.155 55.2847 580.235 51.4447C584.315 47.5247 589.075 44.5247 594.515 42.4447C599.955 40.2847 605.915 39.2047 612.395 39.2047C619.275 39.2047 625.555 40.4047 631.235 42.8047C636.915 45.1247 641.715 48.6047 645.635 53.2447L635.555 62.7247C632.515 59.4447 629.115 57.0047 625.355 55.4047C621.595 53.7247 617.515 52.8847 613.115 52.8847C608.715 52.8847 604.675 53.6047 600.995 55.0447C597.395 56.4847 594.235 58.5247 591.515 61.1647C588.875 63.8047 586.795 66.9247 585.275 70.5247C583.835 74.1247 583.115 78.0847 583.115 82.4047C583.115 86.7247 583.835 90.6847 585.275 94.2847C586.795 97.8847 588.875 101.005 591.515 103.645C594.235 106.285 597.395 108.325 600.995 109.765C604.675 111.205 608.715 111.925 613.115 111.925C617.515 111.925 621.595 111.125 625.355 109.525C629.115 107.845 632.515 105.325 635.555 101.965L645.635 111.565C641.715 116.125 636.915 119.605 631.235 122.005C625.555 124.405 619.235 125.605 612.275 125.605ZM698.185 125.605C691.625 125.605 685.585 124.525 680.065 122.365C674.545 120.205 669.745 117.205 665.665 113.365C661.585 109.445 658.425 104.885 656.185 99.6847C653.945 94.4047 652.825 88.6447 652.825 82.4047C652.825 76.1647 653.945 70.4447 656.185 65.2447C658.425 59.9647 661.585 55.4047 665.665 51.5647C669.745 47.6447 674.545 44.6047 680.065 42.4447C685.585 40.2847 691.585 39.2047 698.065 39.2047C704.625 39.2047 710.625 40.2847 716.065 42.4447C721.585 44.6047 726.385 47.6447 730.465 51.5647C734.545 55.4047 737.705 59.9647 739.945 65.2447C742.185 70.4447 743.305 76.1647 743.305 82.4047C743.305 88.6447 742.185 94.4047 739.945 99.6847C737.705 104.965 734.545 109.525 730.465 113.365C726.385 117.205 721.585 120.205 716.065 122.365C710.625 124.525 704.665 125.605 698.185 125.605ZM698.065 111.925C702.305 111.925 706.225 111.205 709.825 109.765C713.425 108.325 716.545 106.285 719.185 103.645C721.825 100.925 723.865 97.8047 725.305 94.2847C726.825 90.6847 727.585 86.7247 727.585 82.4047C727.585 78.0847 726.825 74.1647 725.305 70.6447C723.865 67.0447 721.825 63.9247 719.185 61.2847C716.545 58.5647 713.425 56.4847 709.825 55.0447C706.225 53.6047 702.305 52.8847 698.065 52.8847C693.825 52.8847 689.905 53.6047 686.305 55.0447C682.785 56.4847 679.665 58.5647 676.945 61.2847C674.305 63.9247 672.225 67.0447 670.705 70.6447C669.265 74.1647 668.545 78.0847 668.545 82.4047C668.545 86.6447 669.265 90.5647 670.705 94.1647C672.225 97.7647 674.305 100.925 676.945 103.645C679.585 106.285 682.705 108.325 686.305 109.765C689.905 111.205 693.825 111.925 698.065 111.925Z" fill="#FFFF00"/>
<path d="M317.696 232.405L280.976 148.405H297.896L330.656 224.365H320.936L354.056 148.405H369.656L333.056 232.405H317.696ZM378.52 232.405V148.405H394.12V232.405H378.52ZM442.881 233.605C436.321 233.605 430.041 232.685 424.041 230.845C418.041 228.925 413.281 226.485 409.761 223.525L415.161 211.405C418.521 214.045 422.681 216.245 427.641 218.005C432.601 219.765 437.681 220.645 442.881 220.645C447.281 220.645 450.841 220.165 453.561 219.205C456.281 218.245 458.281 216.965 459.561 215.365C460.841 213.685 461.481 211.805 461.481 209.725C461.481 207.165 460.561 205.125 458.721 203.605C456.881 202.005 454.481 200.765 451.521 199.885C448.641 198.925 445.401 198.045 441.801 197.245C438.281 196.445 434.721 195.525 431.121 194.485C427.601 193.365 424.361 191.965 421.401 190.285C418.521 188.525 416.161 186.205 414.321 183.325C412.481 180.445 411.561 176.765 411.561 172.285C411.561 167.725 412.761 163.565 415.161 159.805C417.641 155.965 421.361 152.925 426.321 150.685C431.361 148.365 437.721 147.205 445.401 147.205C450.441 147.205 455.441 147.845 460.401 149.125C465.361 150.405 469.681 152.245 473.361 154.645L468.441 166.765C464.681 164.525 460.801 162.885 456.801 161.845C452.801 160.725 448.961 160.165 445.281 160.165C440.961 160.165 437.441 160.685 434.721 161.725C432.081 162.765 430.121 164.125 428.841 165.805C427.641 167.485 427.041 169.405 427.041 171.565C427.041 174.125 427.921 176.205 429.681 177.805C431.521 179.325 433.881 180.525 436.761 181.405C439.721 182.285 443.001 183.165 446.601 184.045C450.201 184.845 453.761 185.765 457.281 186.805C460.881 187.845 464.121 189.205 467.001 190.885C469.961 192.565 472.321 194.845 474.081 197.725C475.921 200.605 476.841 204.245 476.841 208.645C476.841 213.125 475.601 217.285 473.121 221.125C470.721 224.885 467.001 227.925 461.961 230.245C456.921 232.485 450.561 233.605 442.881 233.605ZM480.429 232.405L518.229 148.405H533.589L571.509 232.405H555.189L522.669 156.685H528.909L496.509 232.405H480.429ZM497.829 212.965L502.029 200.725H547.389L551.589 212.965H497.829ZM620.26 233.605C613.7 233.605 607.66 232.565 602.14 230.485C596.7 228.325 591.94 225.325 587.86 221.485C583.78 217.565 580.62 212.965 578.38 207.685C576.14 202.405 575.02 196.645 575.02 190.405C575.02 184.165 576.14 178.405 578.38 173.125C580.62 167.845 583.78 163.285 587.86 159.445C592.02 155.525 596.86 152.525 602.38 150.445C607.9 148.285 613.94 147.205 620.5 147.205C627.62 147.205 634.02 148.365 639.7 150.685C645.46 153.005 650.3 156.405 654.22 160.885L644.38 170.485C641.1 167.205 637.54 164.805 633.7 163.285C629.94 161.685 625.78 160.885 621.22 160.885C616.82 160.885 612.74 161.605 608.98 163.045C605.22 164.485 601.98 166.525 599.26 169.165C596.54 171.805 594.42 174.925 592.9 178.525C591.46 182.125 590.74 186.085 590.74 190.405C590.74 194.645 591.46 198.565 592.9 202.165C594.42 205.765 596.54 208.925 599.26 211.645C601.98 214.285 605.18 216.325 608.86 217.765C612.54 219.205 616.62 219.925 621.1 219.925C625.26 219.925 629.26 219.285 633.1 218.005C637.02 216.645 640.74 214.405 644.26 211.285L653.14 222.925C648.74 226.445 643.62 229.125 637.78 230.965C632.02 232.725 626.18 233.605 620.26 233.605ZM638.38 220.885V189.445H653.14V222.925L638.38 220.885ZM673.716 232.405V148.405H689.316V232.405H673.716ZM738.076 233.605C731.516 233.605 725.236 232.685 719.236 230.845C713.236 228.925 708.476 226.485 704.956 223.525L710.356 211.405C713.716 214.045 717.876 216.245 722.836 218.005C727.796 219.765 732.876 220.645 738.076 220.645C742.476 220.645 746.036 220.165 748.756 219.205C751.476 218.245 753.476 216.965 754.756 215.365C756.036 213.685 756.676 211.805 756.676 209.725C756.676 207.165 755.756 205.125 753.916 203.605C752.076 202.005 749.676 200.765 746.716 199.885C743.836 198.925 740.596 198.045 736.996 197.245C733.476 196.445 729.916 195.525 726.316 194.485C722.796 193.365 719.556 191.965 716.596 190.285C713.716 188.525 711.356 186.205 709.516 183.325C707.676 180.445 706.756 176.765 706.756 172.285C706.756 167.725 707.956 163.565 710.356 159.805C712.836 155.965 716.556 152.925 721.516 150.685C726.556 148.365 732.916 147.205 740.596 147.205C745.636 147.205 750.636 147.845 755.596 149.125C760.556 150.405 764.876 152.245 768.556 154.645L763.636 166.765C759.876 164.525 755.996 162.885 751.996 161.845C747.996 160.725 744.156 160.165 740.476 160.165C736.156 160.165 732.636 160.685 729.916 161.725C727.276 162.765 725.316 164.125 724.036 165.805C722.836 167.485 722.236 169.405 722.236 171.565C722.236 174.125 723.116 176.205 724.876 177.805C726.716 179.325 729.076 180.525 731.956 181.405C734.916 182.285 738.196 183.165 741.796 184.045C745.396 184.845 748.956 185.765 752.476 186.805C756.076 187.845 759.316 189.205 762.196 190.885C765.156 192.565 767.516 194.845 769.276 197.725C771.116 200.605 772.036 204.245 772.036 208.645C772.036 213.125 770.796 217.285 768.316 221.125C765.916 224.885 762.196 227.925 757.156 230.245C752.116 232.485 745.756 233.605 738.076 233.605ZM787.505 232.405V148.405H800.345L837.065 209.725H830.345L866.465 148.405H879.305L879.425 232.405H864.665L864.545 171.565H867.665L836.945 222.805H829.985L798.785 171.565H802.385V232.405H787.505ZM941.474 233.605C934.914 233.605 928.874 232.525 923.354 230.365C917.834 228.205 913.034 225.205 908.954 221.365C904.874 217.445 901.714 212.885 899.474 207.685C897.234 202.405 896.114 196.645 896.114 190.405C896.114 184.165 897.234 178.445 899.474 173.245C901.714 167.965 904.874 163.405 908.954 159.565C913.034 155.645 917.834 152.605 923.354 150.445C928.874 148.285 934.874 147.205 941.354 147.205C947.914 147.205 953.914 148.285 959.354 150.445C964.874 152.605 969.674 155.645 973.754 159.565C977.834 163.405 980.994 167.965 983.234 173.245C985.474 178.445 986.594 184.165 986.594 190.405C986.594 196.645 985.474 202.405 983.234 207.685C980.994 212.965 977.834 217.525 973.754 221.365C969.674 225.205 964.874 228.205 959.354 230.365C953.914 232.525 947.954 233.605 941.474 233.605ZM941.354 219.925C945.594 219.925 949.514 219.205 953.114 217.765C956.714 216.325 959.834 214.285 962.474 211.645C965.114 208.925 967.154 205.805 968.594 202.285C970.114 198.685 970.874 194.725 970.874 190.405C970.874 186.085 970.114 182.165 968.594 178.645C967.154 175.045 965.114 171.925 962.474 169.285C959.834 166.565 956.714 164.485 953.114 163.045C949.514 161.605 945.594 160.885 941.354 160.885C937.114 160.885 933.194 161.605 929.594 163.045C926.074 164.485 922.954 166.565 920.234 169.285C917.594 171.925 915.514 175.045 913.994 178.645C912.554 182.165 911.834 186.085 911.834 190.405C911.834 194.645 912.554 198.565 913.994 202.165C915.514 205.765 917.594 208.925 920.234 211.645C922.874 214.285 925.994 216.325 929.594 217.765C933.194 219.205 937.114 219.925 941.354 219.925Z" fill="white"/>
</svg>
